<svg width="24" height="24" viewBox="0 0 24 24" fill="none" xmlns="http://www.w3.org/2000/svg">
<path d="M16.6599 3.3477C16.5527 3.23721 16.4255 3.14955 16.2854 3.08974C16.1454 3.02993 15.9952 2.99915 15.8435 2.99915C15.6919 2.99915 15.5417 3.02993 15.4016 3.08974C15.2615 3.14955 15.1343 3.23721 15.0272 3.3477L7.26975 11.3299C7.18424 11.4177 7.1164 11.522 7.07011 11.6368C7.02383 11.7516 7 11.8747 7 11.999C7 12.1233 7.02383 12.2464 7.07011 12.3612C7.1164 12.476 7.18424 12.5803 7.26975 12.6682L15.0272 20.6503C15.4792 21.1154 16.2079 21.1154 16.6599 20.6503C17.1118 20.1853 17.1118 19.4355 16.6599 18.9704L9.88939 12.0038L16.6691 5.02766C17.1118 4.56259 17.1118 3.81277 16.6599 3.3477Z" fill="#D3D3D3"/>
</svg>
