<svg width="29" height="28" viewBox="0 0 29 28" fill="none" xmlns="http://www.w3.org/2000/svg">
<path d="M8.27776 6.3195C8.38 6.42036 8.46112 6.54014 8.51646 6.67198C8.5718 6.80382 8.60029 6.94514 8.60029 7.08787C8.60029 7.23059 8.5718 7.37191 8.51646 7.50375C8.46112 7.6356 8.38 7.75537 8.27776 7.85624C6.62755 9.48617 5.7005 11.6967 5.7005 14.0016C5.7005 16.3065 6.62755 18.517 8.27776 20.1469C8.37986 20.2478 8.46084 20.3676 8.51607 20.4994C8.5713 20.6312 8.5997 20.7725 8.59965 20.9151C8.5996 21.0578 8.5711 21.199 8.51577 21.3308C8.46045 21.4625 8.37938 21.5823 8.27721 21.6831C8.17503 21.7839 8.05374 21.8639 7.92027 21.9184C7.7868 21.973 7.64376 22.001 7.49931 22.001C7.35486 22.0009 7.21184 21.9728 7.07841 21.9181C6.94498 21.8635 6.82375 21.7835 6.72164 21.6825C2.42612 17.4405 2.42612 10.5615 6.72164 6.3195C6.82378 6.21852 6.94507 6.13842 7.07857 6.08376C7.21208 6.02911 7.35518 6.00098 7.4997 6.00098C7.64422 6.00098 7.78732 6.02911 7.92083 6.08376C8.05433 6.13842 8.17562 6.21852 8.27776 6.3195ZM22.2784 6.3195C26.5739 10.5626 26.5739 17.4405 22.2784 21.6825C22.0709 21.8804 21.7932 21.9898 21.5048 21.9874C21.2165 21.9849 20.9406 21.8707 20.7367 21.6693C20.5328 21.468 20.4172 21.1956 20.4147 20.9108C20.4122 20.6261 20.523 20.3517 20.7233 20.1469C22.3736 18.517 23.3006 16.3065 23.3006 14.0016C23.3006 11.6967 22.3736 9.48617 20.7233 7.85624C20.517 7.6526 20.401 7.37634 20.4009 7.08825C20.4008 6.80016 20.5166 6.52382 20.7228 6.32004C20.929 6.11625 21.2087 6.00171 21.5005 6.00161C21.7922 6.00151 22.072 6.11586 22.2784 6.3195ZM11.5406 9.44076C11.7468 9.64442 11.8626 9.92061 11.8626 10.2086C11.8626 10.4966 11.7468 10.7728 11.5406 10.9764C11.1403 11.3717 10.8227 11.8411 10.606 12.3576C10.3894 12.8742 10.2778 13.4278 10.2778 13.9869C10.2778 14.546 10.3894 15.0996 10.606 15.6162C10.8227 16.1327 11.1403 16.6021 11.5406 16.9974C11.6457 17.0976 11.7295 17.2174 11.7871 17.3499C11.8447 17.4824 11.8751 17.6249 11.8763 17.7691C11.8776 17.9133 11.8498 18.0563 11.7945 18.1898C11.7392 18.3233 11.6575 18.4445 11.5543 18.5465C11.451 18.6485 11.3282 18.7291 11.1931 18.7837C11.0579 18.8383 10.9131 18.8658 10.7671 18.8646C10.6211 18.8633 10.4768 18.8333 10.3426 18.7764C10.2084 18.7195 10.0871 18.6368 9.98563 18.533C8.76475 17.3273 8.07886 15.692 8.07886 13.9869C8.07886 12.2818 8.76475 10.6465 9.98563 9.44076C10.1919 9.23716 10.4715 9.12278 10.7631 9.12278C11.0547 9.12278 11.3344 9.23716 11.5406 9.44076ZM19.1936 9.44076C20.4145 10.6465 21.1004 12.2818 21.1004 13.9869C21.1004 15.692 20.4145 17.3273 19.1936 18.533C19.0915 18.6339 18.9703 18.714 18.8369 18.7686C18.7034 18.8233 18.5604 18.8514 18.416 18.8515C18.2715 18.8515 18.1285 18.8235 17.995 18.7689C17.8615 18.7144 17.7402 18.6344 17.6381 18.5336C17.5359 18.4328 17.4548 18.313 17.3995 18.1813C17.3442 18.0495 17.3157 17.9083 17.3156 17.7656C17.3156 17.623 17.344 17.4817 17.3992 17.3499C17.4544 17.2181 17.5354 17.0983 17.6375 16.9974C18.0379 16.6021 18.3554 16.1327 18.5721 15.6162C18.7888 15.0996 18.9003 14.546 18.9003 13.9869C18.9003 13.4278 18.7888 12.8742 18.5721 12.3576C18.3554 11.8411 18.0379 11.3717 17.6375 10.9764C17.4313 10.7726 17.3155 10.4963 17.3156 10.2082C17.3157 9.92011 17.4317 9.64386 17.6381 9.44022C17.8444 9.23658 18.1242 9.12223 18.416 9.12233C18.7077 9.12243 18.9874 9.23698 19.1936 9.44076ZM14.5891 12.4491C14.8057 12.4491 15.0202 12.4912 15.2203 12.5731C15.4205 12.6549 15.6023 12.7749 15.7555 12.9262C15.9087 13.0775 16.0302 13.2571 16.1131 13.4547C16.196 13.6524 16.2387 13.8642 16.2387 14.0781C16.2387 14.2921 16.196 14.5039 16.1131 14.7015C16.0302 14.8992 15.9087 15.0788 15.7555 15.23C15.6023 15.3813 15.4205 15.5013 15.2203 15.5832C15.0202 15.665 14.8057 15.7072 14.5891 15.7072C14.1516 15.7072 13.732 15.5356 13.4226 15.23C13.1133 14.9245 12.9395 14.5102 12.9395 14.0781C12.9395 13.6461 13.1133 13.2317 13.4226 12.9262C13.732 12.6207 14.1516 12.4491 14.5891 12.4491Z" fill="#8D8D8D"/>
</svg>
