<svg width="24" height="24" viewBox="0 0 24 24" fill="none" xmlns="http://www.w3.org/2000/svg">
<mask id="path-1-inside-1_3739_1271" fill="white">
<path d="M12 21C12.5505 21.0007 13.0875 20.8277 13.5364 20.5051C13.9854 20.1826 14.3239 19.7264 14.5049 19.2H9.49511C9.67614 19.7264 10.0146 20.1826 10.4636 20.5051C10.9125 20.8277 11.4495 21.0007 12 21ZM18.2222 14.3274V10.2C18.2222 7.3047 16.28 4.8657 13.6489 4.1322C13.3884 3.468 12.752 3 12 3C11.248 3 10.6116 3.468 10.3511 4.1322C7.71911 4.8657 5.77778 7.3047 5.77778 10.2V14.3274L4.26045 15.8637C4.17774 15.9471 4.11215 16.0463 4.06745 16.1555C4.02276 16.2647 3.99983 16.3818 4 16.5V17.4C4 17.6387 4.09365 17.8676 4.26035 18.0364C4.42705 18.2052 4.65314 18.3 4.88889 18.3H19.1111C19.3469 18.3 19.573 18.2052 19.7396 18.0364C19.9063 17.8676 20 17.6387 20 17.4V16.5C20.0002 16.3818 19.9772 16.2647 19.9325 16.1555C19.8878 16.0463 19.8223 15.9471 19.7396 15.8637L18.2222 14.3274Z"/>
</mask>
<path d="M12 21C12.5505 21.0007 13.0875 20.8277 13.5364 20.5051C13.9854 20.1826 14.3239 19.7264 14.5049 19.2H9.49511C9.67614 19.7264 10.0146 20.1826 10.4636 20.5051C10.9125 20.8277 11.4495 21.0007 12 21ZM18.2222 14.3274V10.2C18.2222 7.3047 16.28 4.8657 13.6489 4.1322C13.3884 3.468 12.752 3 12 3C11.248 3 10.6116 3.468 10.3511 4.1322C7.71911 4.8657 5.77778 7.3047 5.77778 10.2V14.3274L4.26045 15.8637C4.17774 15.9471 4.11215 16.0463 4.06745 16.1555C4.02276 16.2647 3.99983 16.3818 4 16.5V17.4C4 17.6387 4.09365 17.8676 4.26035 18.0364C4.42705 18.2052 4.65314 18.3 4.88889 18.3H19.1111C19.3469 18.3 19.573 18.2052 19.7396 18.0364C19.9063 17.8676 20 17.6387 20 17.4V16.5C20.0002 16.3818 19.9772 16.2647 19.9325 16.1555C19.8878 16.0463 19.8223 15.9471 19.7396 15.8637L18.2222 14.3274Z" stroke="#EAEAEA" stroke-width="4" mask="url(#path-1-inside-1_3739_1271)"/>
</svg>
