<svg width="29" height="28" viewBox="0 0 29 28" fill="none" xmlns="http://www.w3.org/2000/svg">
<path d="M23.5 8.99951H22C22.1613 8.46467 22.509 7.40808 22.5 6.84951C22.5 4.72651 20.473 2.99951 18.35 2.99951C16.5658 2.99951 15.3745 4.62971 14.6056 6.39301C13.8477 4.72651 12.5959 2.99951 10.65 2.99951C8.527 2.99951 6.5 4.87651 6.5 6.99951C6.5 7.65511 6.857 8.54741 7 8.99951H5.5C4.2867 8.99951 3.5 9.48621 3.5 10.6995V12.8995C3.5 14.1128 4.4867 15.0995 5.7 15.0995V22.7995C5.7 24.0128 6.6867 24.9995 7.9 24.9995H21.1C22.3133 24.9995 23.5 24.2128 23.5 22.9995V14.9995C24.7133 14.9995 25.5 14.1128 25.5 12.8995V10.6995C25.5 9.48621 24.7133 8.99951 23.5 8.99951ZM18.5 4.99951C19.4097 4.99951 20.5 6.08981 20.5 6.99951C20.5 8.64951 19.4114 8.99951 19 8.99951H15.5C16.0621 7.26591 17.7025 4.99951 18.5 4.99951ZM8.5 6.99951C8.5 6.08981 9.7403 4.99951 10.65 4.99951C11.6268 4.99951 12.9676 7.37701 13.5 8.99951H10C9.5886 8.99951 8.5 8.64951 8.5 6.99951ZM5.5 10.9995H13.5V12.9995H5.5V10.9995ZM7.5 22.9995V14.9995H13.5V22.9995H7.5ZM21.5 22.9995H15.5V14.9995H21.5V22.9995ZM15.5 12.9995V10.9995H23.5V12.9995H15.5Z" fill="#8D8D8D"/>
</svg>
